<svg xmlns="http://www.w3.org/2000/svg" viewBox="0 0 256 80">
  <g transform="translate(4 4) scale(1.125)">
  <defs>
    <radialGradient id="wood" cx="0.5" cy="0.3" r="0.85">
      <stop offset="0" stop-color="#9a3412"/>
      <stop offset="1" stop-color="#3b1406"/>
    </radialGradient>
    <linearGradient id="gold" x1="0" y1="0" x2="1" y2="1">
      <stop offset="0" stop-color="#fde68a"/>
      <stop offset="0.55" stop-color="#f59e0b"/>
      <stop offset="1" stop-color="#b45309"/>
    </linearGradient>
  </defs>
  <rect width="64" height="64" rx="14" fill="url(#wood)"/>
  <rect x="2.5" y="2.5" width="59" height="59" rx="11.5" fill="none" stroke="#f59e0b" stroke-opacity=".55" stroke-width="2"/>
  <path d="M42 27h5a5 5 0 0 1 5 5v7a5 5 0 0 1-5 5h-5" fill="none" stroke="#1c0a03" stroke-width="8" stroke-linejoin="round"/>
  <path d="M42 27h5a5 5 0 0 1 5 5v7a5 5 0 0 1-5 5h-5" fill="none" stroke="url(#gold)" stroke-width="3.5" stroke-linejoin="round"/>
  <rect x="13" y="22" width="30" height="31" rx="5" fill="url(#gold)" stroke="#1c0a03" stroke-width="3"/>
  <g fill="#1c0a03">
    <circle cx="17.5" cy="20" r="6.5"/>
    <circle cx="26.5" cy="17" r="8"/>
    <circle cx="36" cy="18.5" r="7"/>
    <circle cx="41" cy="22" r="4.5"/>
  </g>
  <g fill="#fff7ed">
    <circle cx="17.5" cy="20" r="5"/>
    <circle cx="26.5" cy="17" r="6.5"/>
    <circle cx="36" cy="18.5" r="5.5"/>
    <circle cx="41" cy="22" r="3"/>
    <rect x="14.5" y="20" width="27" height="4.5"/>
  </g>
  <circle cx="23.5" cy="14.5" r="1.8" fill="#fff" />
  <g fill="#1c0a03">
    <rect x="24.5" y="29" width="7" height="19" rx="1.6"/>
    <rect x="18.5" y="35" width="19" height="7" rx="1.6"/>
  </g>
  <circle cx="28" cy="38.5" r="1.6" fill="#f59e0b"/>
</g>
  <text x="90" y="44" font-family="'Segoe UI Black', 'Arial Black', 'Segoe UI', 'Helvetica Neue', Arial, sans-serif" font-size="36" font-weight="900" letter-spacing="-1" fill="#3b1406" stroke="none" stroke-width="1.5" paint-order="stroke">Taverna</text>
  <text x="92" y="68" font-family="'Segoe UI Black', 'Arial Black', 'Segoe UI', 'Helvetica Neue', Arial, sans-serif" font-size="16" font-weight="800" letter-spacing="7" fill="#b45309">DOS JOGOS</text>
</svg>
